<svg width="241.89" height="64mm" viewBox="0 0 64 64" xmlns="http://www.w3.org/2000/svg"><defs><clipPath id="a"><path d="M25.902 2.517a8.23 8.23 0 0 0-.394.015 7.321 7.321 0 0 0-.392.035l-.032.004a7.423 7.423 0 0 0-3.31 1.242l-.03.022c-.087.06-.171.12-.254.182-.04.03-.077.06-.115.09-.055.043-.11.086-.163.13-.048.04-.095.082-.142.123l-.13.113c-.045.042-.09.086-.134.13-.044.04-.087.082-.13.124l-.109.115c-.05.053-.1.105-.147.159-.026.028-.051.058-.076.087a7.314 7.314 0 0 0-.173.205l-.04.052a7.406 7.406 0 0 0-.198.26l-.009.012a7.447 7.447 0 0 0-1.03 2.013l-.026.074a6.87 6.87 0 0 0-.16.587l-.02.087a7.279 7.279 0 0 0-.127.76 8.256 8.256 0 0 0-.046.755c0 .03-.003.06-.003.092l.002.116.001.074a7.426 7.426 0 0 0 .912 3.392l.028.05c.04.07.08.14.122.21l.064.106a7.28 7.28 0 0 0 .26.388l.023.033a7.42 7.42 0 0 0 1.9 1.834c.048.032.096.065.145.096.07.045.14.088.211.13.956.649 2.206 1.596 2.206 2.963 0 1.238-1.054 2.105-1.984 2.71a3.276 3.276 0 0 1-.294.17c-.993.508-2.285 1.002-3.368.378-1.183-.684-1.379-2.24-1.463-3.392a7.464 7.464 0 0 0-3.907-6.489c-3.498-1.9-7.933-.682-9.974 2.735a7.469 7.469 0 0 0 10.08 10.337c1.04-.502 2.485-1.112 3.669-.428 1.16.67 1.327 2.19 1.367 3.34 0 .072.003.144.006.216v.012c0 .027.003.05.004.076l.004.093c.003.045.01.09.013.134a7.907 7.907 0 0 0 .042.39c.014.107.031.214.05.32l.014.08a7.406 7.406 0 0 0 .522 1.656l.027.06c.051.111.105.22.161.329l.035.068c.066.123.134.244.206.362.02.035.044.069.066.103.049.078.098.155.15.23a7.312 7.312 0 0 0 .382.511l.089.106a7.439 7.439 0 0 0 1.085 1.046l.109.085c.241.183.494.35.757.503l.012.007.017.01c.102.058.206.115.312.17l.017.008c.103.053.207.104.313.151l.031.014a7.027 7.027 0 0 0 .652.255l.064.022a7.227 7.227 0 0 0 .607.17l.132.03a7.166 7.166 0 0 0 .556.1 7.02 7.02 0 0 0 .943.07l.092.002.08-.002a8.278 8.278 0 0 0 .393-.014l.116-.009c.092-.007.185-.016.276-.026l.032-.004a7.424 7.424 0 0 0 3.31-1.242l.032-.023c.085-.06.17-.12.252-.182.04-.029.078-.06.116-.09.054-.043.11-.085.162-.13.048-.04.096-.081.143-.123.043-.037.086-.074.128-.113.046-.042.09-.085.136-.129l.129-.125c.037-.037.073-.076.11-.115l.147-.158.076-.088c.058-.067.116-.135.172-.205l.041-.051a7.06 7.06 0 0 0 .198-.26l.008-.012a7.445 7.445 0 0 0 1.132-2.344l.012-.042c.026-.095.05-.192.073-.29l.02-.085a7.29 7.29 0 0 0 .05-.248l.023-.132a6.947 6.947 0 0 0 .071-.562 7.734 7.734 0 0 0 .029-.573l.002-.092-.002-.067c0-.096-.004-.192-.009-.288l-.007-.148a7.495 7.495 0 0 0-.071-.633l-.02-.126a7.703 7.703 0 0 0-.145-.664l-.01-.036a7.369 7.369 0 0 0-.309-.902l-.049-.117a7.812 7.812 0 0 0-.183-.39l-.076-.146a7.777 7.777 0 0 0-.158-.281l-.03-.053a7.419 7.419 0 0 0-2.317-2.403c-.056-.037-.115-.072-.173-.108l-.116-.071c-.974-.609-2.199-1.514-2.199-2.848 0-1.202.967-2.08 1.85-2.715.187-.135.388-.25.599-.346.994-.45 2.246-.857 3.293-.252 1.16.669 1.327 2.19 1.367 3.34a7.847 7.847 0 0 0 .014.397 7.47 7.47 0 0 0 14.092 2.946c1.785-3.447.59-7.745-2.714-9.781a7.458 7.458 0 0 0-6.991-.452 3.79 3.79 0 0 0-.38.184c-.077.04-.152.08-.226.121-1.014.54-2.41 1.148-3.566.48-1.184-.683-1.38-2.24-1.463-3.39a7.467 7.467 0 0 0-.01-.297l-.003-.038c-.005-.1-.013-.2-.022-.3l-.007-.076a7.507 7.507 0 0 0-.062-.446c-.01-.062-.023-.123-.032-.185-.016-.1-.04-.198-.065-.296l-.004-.02a7.418 7.418 0 0 0-.444-1.309c-.01-.025-.022-.05-.033-.074a7.85 7.85 0 0 0-.2-.404l-.057-.104a7.311 7.311 0 0 0-.121-.211l-.032-.052a7.414 7.414 0 0 0-2.339-2.394l-.095-.062a7.867 7.867 0 0 0-.187-.112l-.021-.012-.017-.01a7.405 7.405 0 0 0-.312-.169l-.018-.01a6.282 6.282 0 0 0-.313-.15l-.03-.014a7.486 7.486 0 0 0-.652-.255l-.064-.021c-.09-.03-.18-.057-.27-.083l-.098-.028a7.947 7.947 0 0 0-1.125-.214 7.984 7.984 0 0 0-.746-.046l-.091-.002-.08.002" stroke-width=".132"/></clipPath></defs><path fill="#2f649e" d="M.207.207h63.586v63.586H.207z"/><path d="M25.902 2.517a8.23 8.23 0 0 0-.394.015 7.321 7.321 0 0 0-.392.035l-.032.004a7.423 7.423 0 0 0-3.31 1.242l-.03.022c-.087.06-.171.12-.254.182-.04.03-.077.06-.115.09-.055.043-.11.086-.163.13-.048.04-.095.082-.142.123l-.13.113c-.045.042-.09.086-.134.13-.044.04-.087.082-.13.124l-.109.115c-.05.053-.1.105-.147.159-.026.028-.051.058-.076.087a7.314 7.314 0 0 0-.173.205l-.04.052a7.406 7.406 0 0 0-.198.26l-.009.012a7.447 7.447 0 0 0-1.03 2.013l-.026.074a6.87 6.87 0 0 0-.16.587l-.02.087a7.279 7.279 0 0 0-.127.76 8.256 8.256 0 0 0-.046.755c0 .03-.003.06-.003.092l.002.116.001.074a7.426 7.426 0 0 0 .912 3.392l.028.05c.04.07.08.14.122.21l.064.106a7.28 7.28 0 0 0 .26.388l.023.033a7.42 7.42 0 0 0 1.9 1.834c.048.032.096.065.145.096.07.045.14.088.211.13.956.649 2.206 1.596 2.206 2.963 0 1.238-1.054 2.105-1.984 2.71a3.276 3.276 0 0 1-.294.17c-.993.508-2.285 1.002-3.368.378-1.183-.684-1.379-2.24-1.463-3.392a7.464 7.464 0 0 0-3.907-6.489c-3.498-1.9-7.933-.682-9.974 2.735a7.469 7.469 0 0 0 10.08 10.337c1.04-.502 2.485-1.112 3.669-.428 1.16.67 1.327 2.19 1.367 3.34 0 .072.003.144.006.216v.012c0 .027.003.05.004.076l.004.093c.003.045.01.09.013.134a7.907 7.907 0 0 0 .042.39c.014.107.031.214.05.32l.014.08a7.406 7.406 0 0 0 .522 1.656l.027.06c.051.111.105.22.161.329l.035.068c.066.123.134.244.206.362.02.035.044.069.066.103.049.078.098.155.15.23a7.312 7.312 0 0 0 .382.511l.089.106a7.439 7.439 0 0 0 1.085 1.046l.109.085c.241.183.494.35.757.503l.012.007.017.01c.102.058.206.115.312.17l.017.008c.103.053.207.104.313.151l.031.014a7.027 7.027 0 0 0 .652.255l.064.022a7.227 7.227 0 0 0 .607.17l.132.03a7.166 7.166 0 0 0 .556.1 7.02 7.02 0 0 0 .943.07l.092.002.08-.002a8.278 8.278 0 0 0 .393-.014l.116-.009c.092-.007.185-.016.276-.026l.032-.004a7.424 7.424 0 0 0 3.31-1.242l.032-.023c.085-.06.17-.12.252-.182.04-.029.078-.06.116-.09.054-.043.11-.085.162-.13.048-.04.096-.081.143-.123.043-.037.086-.074.128-.113.046-.042.09-.085.136-.129l.129-.125c.037-.037.073-.076.11-.115l.147-.158.076-.088c.058-.067.116-.135.172-.205l.041-.051a7.06 7.06 0 0 0 .198-.26l.008-.012a7.445 7.445 0 0 0 1.132-2.344l.012-.042c.026-.095.05-.192.073-.29l.02-.085a7.29 7.29 0 0 0 .05-.248l.023-.132a6.947 6.947 0 0 0 .071-.562 7.734 7.734 0 0 0 .029-.573l.002-.092-.002-.067c0-.096-.004-.192-.009-.288l-.007-.148a7.495 7.495 0 0 0-.071-.633l-.02-.126a7.703 7.703 0 0 0-.145-.664l-.01-.036a7.369 7.369 0 0 0-.309-.902l-.049-.117a7.812 7.812 0 0 0-.183-.39l-.076-.146a7.777 7.777 0 0 0-.158-.281l-.03-.053a7.419 7.419 0 0 0-2.317-2.403c-.056-.037-.115-.072-.173-.108l-.116-.071c-.974-.609-2.199-1.514-2.199-2.848 0-1.202.967-2.08 1.85-2.715.187-.135.388-.25.599-.346.994-.45 2.246-.857 3.293-.252 1.16.669 1.327 2.19 1.367 3.34a7.847 7.847 0 0 0 .014.397 7.47 7.47 0 0 0 14.092 2.946c1.785-3.447.59-7.745-2.714-9.781a7.458 7.458 0 0 0-6.991-.452 3.79 3.79 0 0 0-.38.184c-.077.04-.152.08-.226.121-1.014.54-2.41 1.148-3.566.48-1.184-.683-1.38-2.24-1.463-3.39a7.467 7.467 0 0 0-.01-.297l-.003-.038c-.005-.1-.013-.2-.022-.3l-.007-.076a7.507 7.507 0 0 0-.062-.446c-.01-.062-.023-.123-.032-.185-.016-.1-.04-.198-.065-.296l-.004-.02a7.418 7.418 0 0 0-.444-1.309c-.01-.025-.022-.05-.033-.074a7.85 7.85 0 0 0-.2-.404l-.057-.104a7.311 7.311 0 0 0-.121-.211l-.032-.052a7.414 7.414 0 0 0-2.339-2.394l-.095-.062a7.867 7.867 0 0 0-.187-.112l-.021-.012-.017-.01a7.405 7.405 0 0 0-.312-.169l-.018-.01a6.282 6.282 0 0 0-.313-.15l-.03-.014a7.486 7.486 0 0 0-.652-.255l-.064-.021c-.09-.03-.18-.057-.27-.083l-.098-.028a7.947 7.947 0 0 0-1.125-.214 7.984 7.984 0 0 0-.746-.046l-.091-.002-.08.002" clip-path="url(#a)" fill="#fafafa" transform="translate(.132 8.299) scale(1.2267)"/></svg>